# xmcd
#
# Track frame offsets: 
#        150
#        15345
#        29701
#        38204
#        48183
#        58761
#        69224
#        77506
#        89336
#        108710
#        122072
#        140817
#        152678
#        164266
#        174577
#        187987
#        198816
#        214052
#        225873
#        237312
#
# Disc length: 3354 seconds
#
# Revision: 1
# Processed by: cddbd v1.5.2PL0 Copyright (c) Steve Scherf et al.
# Submitted via: ExactAudioCopy v0.99pb5
#
DISCID=040d1814
DTITLE=Various Artist - I Love Christmas CD3
DYEAR=2009
DGENRE=Retro
TTITLE0=Bill Pinkney and the original drifters - The little drummer bo
TTITLE0=y
TTITLE1=Dean Martin - Silver bells
TTITLE2=Elvis Presley - Santa bring my baby back (to me)
TTITLE3=Patti Page - Boogie woogie Santa Claus
TTITLE4=Gene Autry - Sleigh bells
TTITLE5=Bobby Sherman - Jingle bell rock
TTITLE6=Kitty Wells - Santa's is on his way
TTITLE7=Rosemary Clooney - Suzy snowflake
TTITLE8=Glen Campbell - Have yourself a Merry little christmas
TTITLE9=The miracles - Feliz navidad
TTITLE10=The three degrees - It isn't christmas (While you're not here
TTITLE10=)
TTITLE11=Frank Sinatra - O come all ye faithful
TTITLE12=Brook Benton - Christmas makes the town
TTITLE13=The cranberry singers - Ding dong, memly on high
TTITLE14=The platters - God rest ye Merry gentlemen
TTITLE15=Elvis Presley - Santa Claus is back in town
TTITLE16=The 103rd street gospel choir with guest pat lewis - The most
TTITLE16=beautiful night of the year
TTITLE17=Bing Crosby - Happy holidays
TTITLE18=Nat King Cole - A house with love at christmas
TTITLE19=The Gino Marinello orchestra - Do they know it's christmas
EXTD=
EXTT0=
EXTT1=
EXTT2=
EXTT3=
EXTT4=
EXTT5=
EXTT6=
EXTT7=
EXTT8=
EXTT9=
EXTT10=
EXTT11=
EXTT12=
EXTT13=
EXTT14=
EXTT15=
EXTT16=
EXTT17=
EXTT18=
EXTT19=
PLAYORDER=
